<svg viewBox="0 0 233.30078125 159.98291015625" version="1.1" xmlns="http://www.w3.org/2000/svg" class="ic-shfk9m layout-box"><g transform="matrix(1 0 0 1 46.33783935546876 115.221435546875)"><path d="M 28.5156 7.51953 L 112.061 7.51953 C 122.656 7.51953 128.174 2.05078 128.174 -8.39844 L 128.174 -37.3535 C 128.174 -42.7734 127.441 -45.2637 124.854 -48.4863 L 108.838 -68.2129 C 102.832 -75.5859 100.146 -77.8809 91.3574 -77.8809 L 49.2676 -77.8809 C 40.4297 -77.8809 37.793 -75.5859 31.7871 -68.2129 L 15.7227 -48.4863 C 13.1836 -45.2637 12.4512 -42.7734 12.4512 -37.3535 L 12.4512 -8.39844 C 12.4512 2.05078 17.9688 7.51953 28.5156 7.51953 Z M 70.3125 -26.5625 C 63.7207 -26.5625 59.6191 -32.1777 59.6191 -37.4512 L 59.6191 -37.6465 C 59.6191 -39.5508 58.4961 -41.3574 55.9082 -41.3574 L 24.5605 -41.3574 C 22.9492 -41.3574 22.6074 -42.7246 23.4375 -43.75 L 41.0645 -65.8691 C 43.2617 -68.6035 45.752 -69.7754 49.0234 -69.7754 L 91.6016 -69.7754 C 94.873 -69.7754 97.3633 -68.6035 99.5117 -65.8691 L 117.188 -43.75 C 117.969 -42.7246 117.676 -41.3574 116.064 -41.3574 L 84.668 -41.3574 C 82.1289 -41.3574 80.957 -39.5508 80.957 -37.6465 L 80.957 -37.4512 C 80.957 -32.1777 76.8555 -26.5625 70.3125 -26.5625 Z M 29.0039 -2.24609 C 24.5117 -2.24609 22.0703 -4.58984 22.0703 -9.27734 L 22.0703 -32.7637 L 51.3184 -32.7637 C 52.8809 -24.0723 60.4492 -17.5781 70.3125 -17.5781 C 80.1758 -17.5781 87.7441 -24.0723 89.3066 -32.7637 L 118.555 -32.7637 L 118.555 -9.27734 C 118.555 -4.58984 116.064 -2.24609 111.572 -2.24609 Z"></path></g></svg>